<mxfile host="app.diagrams.net" modified="2024-03-05T01:23:30.903Z" agent="Mozilla/5.0 (Windows NT 10.0; Win64; x64) AppleWebKit/537.36 (KHTML, like Gecko) Chrome/122.0.0.0 Safari/537.36" etag="SPK5Q5uRQYajI2ha4R_Z" version="24.0.1" type="github">
  <diagram name="Página-1" id="xgMP8I-rlZKUhfD_yogX">
    <mxGraphModel dx="1049" dy="572" grid="1" gridSize="10" guides="1" tooltips="1" connect="1" arrows="1" fold="1" page="1" pageScale="1" pageWidth="827" pageHeight="1169" math="0" shadow="0">
      <root>
        <mxCell id="0" />
        <mxCell id="1" parent="0" />
        <mxCell id="UJa2UxKm9-u22HpibKEV-1" value="Secretária&lt;div&gt;&lt;br&gt;&lt;/div&gt;" style="shape=umlActor;verticalLabelPosition=bottom;verticalAlign=top;html=1;outlineConnect=0;" vertex="1" parent="1">
          <mxGeometry x="30" y="50" width="30" height="60" as="geometry" />
        </mxCell>
        <mxCell id="UJa2UxKm9-u22HpibKEV-4" value="&lt;div&gt;&lt;br&gt;&lt;/div&gt;Cadastrar Cliente&lt;div&gt;&lt;br&gt;&lt;/div&gt;" style="ellipse;whiteSpace=wrap;html=1;" vertex="1" parent="1">
          <mxGeometry x="300" y="170" width="90" height="50" as="geometry" />
        </mxCell>
        <mxCell id="UJa2UxKm9-u22HpibKEV-6" value="Veterinário&lt;div&gt;&lt;br&gt;&lt;/div&gt;" style="shape=umlActor;html=1;verticalLabelPosition=bottom;verticalAlign=top;align=center;" vertex="1" parent="1">
          <mxGeometry x="630" y="20" width="30" height="60" as="geometry" />
        </mxCell>
        <mxCell id="UJa2UxKm9-u22HpibKEV-7" value="&lt;div&gt;&lt;span style=&quot;background-color: initial;&quot;&gt;Cadastrar Animal&lt;/span&gt;&lt;br&gt;&lt;/div&gt;" style="ellipse;whiteSpace=wrap;html=1;" vertex="1" parent="1">
          <mxGeometry x="300" y="240" width="90" height="60" as="geometry" />
        </mxCell>
        <mxCell id="UJa2UxKm9-u22HpibKEV-9" value="Cadastrar Veterinário" style="ellipse;whiteSpace=wrap;html=1;" vertex="1" parent="1">
          <mxGeometry x="290" y="10" width="90" height="50" as="geometry" />
        </mxCell>
        <mxCell id="UJa2UxKm9-u22HpibKEV-12" value="Cliente" style="shape=umlActor;html=1;verticalLabelPosition=bottom;verticalAlign=top;align=center;" vertex="1" parent="1">
          <mxGeometry x="30" y="310" width="30" height="60" as="geometry" />
        </mxCell>
        <mxCell id="UJa2UxKm9-u22HpibKEV-14" value="Receber pagamento" style="ellipse;whiteSpace=wrap;html=1;" vertex="1" parent="1">
          <mxGeometry x="300" y="110" width="90" height="50" as="geometry" />
        </mxCell>
        <mxCell id="UJa2UxKm9-u22HpibKEV-17" value="&amp;lt;&amp;lt;include&amp;gt;&amp;gt;" style="edgeStyle=none;html=1;endArrow=open;verticalAlign=bottom;dashed=1;labelBackgroundColor=none;rounded=0;exitX=1;exitY=0.5;exitDx=0;exitDy=0;entryX=-0.03;entryY=0.628;entryDx=0;entryDy=0;entryPerimeter=0;" edge="1" parent="1" source="UJa2UxKm9-u22HpibKEV-14" target="UJa2UxKm9-u22HpibKEV-23">
          <mxGeometry x="-0.097" y="12" width="160" relative="1" as="geometry">
            <mxPoint x="340" y="320" as="sourcePoint" />
            <mxPoint x="500" y="320" as="targetPoint" />
            <mxPoint as="offset" />
          </mxGeometry>
        </mxCell>
        <mxCell id="UJa2UxKm9-u22HpibKEV-23" value="Dinheiro/Cartão" style="ellipse;whiteSpace=wrap;html=1;" vertex="1" parent="1">
          <mxGeometry x="490" y="160" width="90" height="50" as="geometry" />
        </mxCell>
        <mxCell id="UJa2UxKm9-u22HpibKEV-26" value="" style="edgeStyle=none;html=1;endArrow=none;verticalAlign=bottom;rounded=0;entryX=0;entryY=0.5;entryDx=0;entryDy=0;" edge="1" parent="1" source="UJa2UxKm9-u22HpibKEV-1" target="UJa2UxKm9-u22HpibKEV-4">
          <mxGeometry width="160" relative="1" as="geometry">
            <mxPoint x="90" y="60" as="sourcePoint" />
            <mxPoint x="250" y="60" as="targetPoint" />
          </mxGeometry>
        </mxCell>
        <mxCell id="UJa2UxKm9-u22HpibKEV-27" value="" style="edgeStyle=none;html=1;endArrow=none;verticalAlign=bottom;rounded=0;entryX=0.067;entryY=0.32;entryDx=0;entryDy=0;entryPerimeter=0;" edge="1" parent="1" source="UJa2UxKm9-u22HpibKEV-1" target="UJa2UxKm9-u22HpibKEV-7">
          <mxGeometry width="160" relative="1" as="geometry">
            <mxPoint x="70" y="87" as="sourcePoint" />
            <mxPoint x="246" y="57" as="targetPoint" />
          </mxGeometry>
        </mxCell>
        <mxCell id="UJa2UxKm9-u22HpibKEV-28" value="" style="edgeStyle=none;html=1;endArrow=none;verticalAlign=bottom;rounded=0;" edge="1" parent="1" source="UJa2UxKm9-u22HpibKEV-1" target="UJa2UxKm9-u22HpibKEV-9">
          <mxGeometry width="160" relative="1" as="geometry">
            <mxPoint x="70" y="91" as="sourcePoint" />
            <mxPoint x="256" y="109" as="targetPoint" />
          </mxGeometry>
        </mxCell>
        <mxCell id="UJa2UxKm9-u22HpibKEV-29" value="" style="edgeStyle=none;html=1;endArrow=none;verticalAlign=bottom;rounded=0;entryX=0.052;entryY=0.242;entryDx=0;entryDy=0;entryPerimeter=0;" edge="1" parent="1" source="UJa2UxKm9-u22HpibKEV-1" target="UJa2UxKm9-u22HpibKEV-14">
          <mxGeometry width="160" relative="1" as="geometry">
            <mxPoint x="70" y="96" as="sourcePoint" />
            <mxPoint x="249" y="170" as="targetPoint" />
          </mxGeometry>
        </mxCell>
        <mxCell id="UJa2UxKm9-u22HpibKEV-30" value="" style="edgeStyle=none;html=1;endArrow=none;verticalAlign=bottom;rounded=0;entryX=0.5;entryY=0.5;entryDx=0;entryDy=0;entryPerimeter=0;exitX=1;exitY=0.5;exitDx=0;exitDy=0;" edge="1" parent="1" source="UJa2UxKm9-u22HpibKEV-9" target="UJa2UxKm9-u22HpibKEV-6">
          <mxGeometry width="160" relative="1" as="geometry">
            <mxPoint x="402" y="92" as="sourcePoint" />
            <mxPoint x="588" y="110" as="targetPoint" />
          </mxGeometry>
        </mxCell>
        <mxCell id="UJa2UxKm9-u22HpibKEV-31" value="Marcar Consulta" style="ellipse;whiteSpace=wrap;html=1;" vertex="1" parent="1">
          <mxGeometry y="170" width="90" height="50" as="geometry" />
        </mxCell>
        <mxCell id="UJa2UxKm9-u22HpibKEV-35" value="&amp;lt;&amp;lt;extend&amp;gt;&amp;gt;" style="edgeStyle=none;html=1;startArrow=open;endArrow=none;startSize=12;verticalAlign=bottom;dashed=1;labelBackgroundColor=none;rounded=0;entryX=0.978;entryY=0.215;entryDx=0;entryDy=0;entryPerimeter=0;" edge="1" parent="1" source="UJa2UxKm9-u22HpibKEV-7" target="UJa2UxKm9-u22HpibKEV-31">
          <mxGeometry x="0.0746" y="26" width="160" relative="1" as="geometry">
            <mxPoint x="450" y="205" as="sourcePoint" />
            <mxPoint x="320" y="245" as="targetPoint" />
            <mxPoint as="offset" />
          </mxGeometry>
        </mxCell>
        <mxCell id="UJa2UxKm9-u22HpibKEV-36" value="&amp;lt;&amp;lt;extend&amp;gt;&amp;gt;" style="edgeStyle=none;html=1;startArrow=open;endArrow=none;startSize=12;verticalAlign=bottom;dashed=1;labelBackgroundColor=none;rounded=0;entryX=0.818;entryY=0.039;entryDx=0;entryDy=0;entryPerimeter=0;exitX=0.046;exitY=0.644;exitDx=0;exitDy=0;exitPerimeter=0;" edge="1" parent="1" source="UJa2UxKm9-u22HpibKEV-4" target="UJa2UxKm9-u22HpibKEV-31">
          <mxGeometry x="0.5101" y="1" width="160" relative="1" as="geometry">
            <mxPoint x="255" y="134" as="sourcePoint" />
            <mxPoint x="98" y="191" as="targetPoint" />
            <mxPoint as="offset" />
          </mxGeometry>
        </mxCell>
        <mxCell id="UJa2UxKm9-u22HpibKEV-38" value="Realizar Consulta" style="ellipse;whiteSpace=wrap;html=1;" vertex="1" parent="1">
          <mxGeometry x="230" y="315" width="90" height="50" as="geometry" />
        </mxCell>
        <mxCell id="UJa2UxKm9-u22HpibKEV-39" value="" style="edgeStyle=none;html=1;endArrow=none;verticalAlign=bottom;rounded=0;entryX=1;entryY=0.5;entryDx=0;entryDy=0;exitX=0.5;exitY=0.5;exitDx=0;exitDy=0;exitPerimeter=0;" edge="1" parent="1" source="UJa2UxKm9-u22HpibKEV-6" target="UJa2UxKm9-u22HpibKEV-38">
          <mxGeometry width="160" relative="1" as="geometry">
            <mxPoint x="730" y="60" as="sourcePoint" />
            <mxPoint x="310" y="349.9999999999999" as="targetPoint" />
            <Array as="points">
              <mxPoint x="760" y="110" />
              <mxPoint x="630" y="340" />
            </Array>
          </mxGeometry>
        </mxCell>
        <mxCell id="UJa2UxKm9-u22HpibKEV-42" value="" style="edgeStyle=none;html=1;endArrow=none;verticalAlign=bottom;rounded=0;entryX=0;entryY=0.5;entryDx=0;entryDy=0;exitX=0.5;exitY=0.5;exitDx=0;exitDy=0;exitPerimeter=0;" edge="1" parent="1" source="UJa2UxKm9-u22HpibKEV-12" target="UJa2UxKm9-u22HpibKEV-38">
          <mxGeometry width="160" relative="1" as="geometry">
            <mxPoint x="330" y="185" as="sourcePoint" />
            <mxPoint x="645" y="90" as="targetPoint" />
          </mxGeometry>
        </mxCell>
        <mxCell id="UJa2UxKm9-u22HpibKEV-44" value="Registrar Consulta" style="ellipse;whiteSpace=wrap;html=1;" vertex="1" parent="1">
          <mxGeometry x="230" y="430" width="90" height="50" as="geometry" />
        </mxCell>
        <mxCell id="UJa2UxKm9-u22HpibKEV-45" value="&amp;lt;&amp;lt;include&amp;gt;&amp;gt;" style="edgeStyle=none;html=1;endArrow=open;verticalAlign=bottom;dashed=1;labelBackgroundColor=none;rounded=0;exitX=0.5;exitY=1;exitDx=0;exitDy=0;" edge="1" parent="1" source="UJa2UxKm9-u22HpibKEV-38" target="UJa2UxKm9-u22HpibKEV-44">
          <mxGeometry x="0.0769" y="35" width="160" relative="1" as="geometry">
            <mxPoint x="400" y="105" as="sourcePoint" />
            <mxPoint x="467" y="161" as="targetPoint" />
            <mxPoint as="offset" />
          </mxGeometry>
        </mxCell>
        <mxCell id="UJa2UxKm9-u22HpibKEV-46" value="Necessário Exames" style="ellipse;whiteSpace=wrap;html=1;" vertex="1" parent="1">
          <mxGeometry x="500" y="420" width="90" height="50" as="geometry" />
        </mxCell>
        <mxCell id="UJa2UxKm9-u22HpibKEV-48" value="&amp;lt;&amp;lt;extend&amp;gt;&amp;gt;" style="edgeStyle=none;html=1;startArrow=open;endArrow=none;startSize=12;verticalAlign=bottom;dashed=1;labelBackgroundColor=none;rounded=0;entryX=0.895;entryY=0.256;entryDx=0;entryDy=0;entryPerimeter=0;" edge="1" parent="1" source="UJa2UxKm9-u22HpibKEV-46" target="UJa2UxKm9-u22HpibKEV-44">
          <mxGeometry width="160" relative="1" as="geometry">
            <mxPoint x="303" y="240" as="sourcePoint" />
            <mxPoint x="98" y="191" as="targetPoint" />
          </mxGeometry>
        </mxCell>
        <mxCell id="UJa2UxKm9-u22HpibKEV-49" value="" style="endArrow=classic;html=1;rounded=0;exitX=0.5;exitY=0.5;exitDx=0;exitDy=0;exitPerimeter=0;" edge="1" parent="1" source="UJa2UxKm9-u22HpibKEV-6">
          <mxGeometry width="50" height="50" relative="1" as="geometry">
            <mxPoint x="370" y="170" as="sourcePoint" />
            <mxPoint x="60" y="80" as="targetPoint" />
            <Array as="points">
              <mxPoint x="360" y="80" />
            </Array>
          </mxGeometry>
        </mxCell>
        <mxCell id="UJa2UxKm9-u22HpibKEV-50" value="" style="edgeStyle=none;html=1;endArrow=none;verticalAlign=bottom;rounded=0;exitX=0.5;exitY=0;exitDx=0;exitDy=0;" edge="1" parent="1" source="UJa2UxKm9-u22HpibKEV-31" target="UJa2UxKm9-u22HpibKEV-1">
          <mxGeometry width="160" relative="1" as="geometry">
            <mxPoint x="40" y="170" as="sourcePoint" />
            <mxPoint x="200" y="170" as="targetPoint" />
          </mxGeometry>
        </mxCell>
        <mxCell id="UJa2UxKm9-u22HpibKEV-52" value="" style="edgeStyle=none;html=1;endArrow=none;verticalAlign=bottom;rounded=0;exitX=0.5;exitY=0;exitDx=0;exitDy=0;exitPerimeter=0;entryX=0.5;entryY=1;entryDx=0;entryDy=0;" edge="1" parent="1" source="UJa2UxKm9-u22HpibKEV-12" target="UJa2UxKm9-u22HpibKEV-31">
          <mxGeometry width="160" relative="1" as="geometry">
            <mxPoint x="40" y="280" as="sourcePoint" />
            <mxPoint x="200" y="280" as="targetPoint" />
          </mxGeometry>
        </mxCell>
      </root>
    </mxGraphModel>
  </diagram>
</mxfile>
